<svg width="200" height="20" fill="none" xmlns="http://www.w3.org/2000/svg"><path d="M3.905 0h23.47c2.441 0 4.303.895 5.584 2.684.486.944.648 1.84.487 2.684l-.708 3.71c-.343 1.801-1.716 3.323-4.117 4.566-1.343.572-2.619.857-3.825.857H8.17l-1.032 5.406c-.011.062-.052.093-.121.093H.088c-.069 0-.097-.031-.085-.093L3.783.093C3.809.031 3.849 0 3.905 0zm6.126 4.753l-.953 4.995h13.545c1.442 0 2.466-.565 3.07-1.696.105-.26.182-.515.23-.764.229-1.205-.18-2.007-1.227-2.405a4.052 4.052 0 00-1.037-.13H10.031zM36.655 0h6.929c.067.012.095.043.086.093l-2.212 11.594c-.334 1.752.3 2.895 1.905 3.43.37.099.72.149 1.053.149H57.15L60.045.093c.026-.062.066-.093.122-.093h6.95c.066.012.095.043.086.093l-3.78 19.814c-.013.062-.053.093-.123.093H39.518c-2.025 0-3.69-.758-4.997-2.274-.714-.982-.966-2.025-.755-3.131L36.533.093C36.56.031 36.6 0 36.655 0zm32.75 0h6.929c.067.012.096.043.086.093l-2.895 15.173h23.429c.07 0 .1.024.09.074l-.871 4.567c-.012.062-.053.093-.122.093H65.589c-.07 0-.098-.031-.086-.093L69.283.093C69.31.031 69.35 0 69.405 0zm39.596 0h23.616c.067.012.095.043.086.093l-.871 4.567c-.012.062-.053.093-.122.093h-21.619c-1.233.137-1.935.659-2.109 1.566-.116.609.164 1.068.84 1.379.205.087.461.13.766.13h14.69c2.066 0 3.758.734 5.073 2.2.779 1.006 1.059 2.081.841 3.225l-.263 1.379c-.372 1.95-1.942 3.529-4.711 4.734-1.135.423-2.257.634-3.367.634H98.339c-.069 0-.098-.031-.086-.093l.871-4.567a.121.121 0 01.119-.074h21.514c.874 0 1.544-.348 2.009-1.044a5.5 5.5 0 00.183-.522c.119-.621-.153-1.087-.815-1.398-.205-.087-.468-.13-.787-.13h-14.481c-2.386 0-4.225-.833-5.516-2.498-.59-.907-.789-1.864-.597-2.87l.263-1.38c.349-1.827 1.767-3.336 4.256-4.53 1.392-.534 2.635-.832 3.729-.894zm38.93 0h7.095c.117.112 1.165 2.293 3.142 6.542 3.998 8.562 6.078 13.035 6.241 13.42l-.007.038h-8.198c-.161-.174-1.965-3.989-5.411-11.445-.426-.894-.653-1.342-.681-1.342-7.07 8.338-10.699 12.6-10.887 12.787h-8.239l.017-.093C141.886 7.07 147.529.435 147.931 0zm22.471 0h23.512c2.136 0 3.862.733 5.177 2.2.779 1.006 1.057 2.093.835 3.261l-.69 3.616c-.358 1.877-1.806 3.43-4.343 4.66l-.963.354 3.229 5.872-.111.037H188.6c-.168-.211-1.198-2.044-3.091-5.499h-10.841l-1.031 5.406c-.012.062-.053.093-.122.093h-6.929c-.069 0-.098-.031-.086-.093L170.28.093c.026-.062.067-.093.122-.093zm6.126 4.753l-.953 4.995h13.545c1.443 0 2.466-.565 3.07-1.696a4.06 4.06 0 00.23-.764c.229-1.205-.179-2.007-1.227-2.405a4.052 4.052 0 00-1.036-.13h-13.629z" fill="#fff"/></svg>