<svg width="436" height="48" fill="none" xmlns="http://www.w3.org/2000/svg"><mask id="path-1-inside-1_10_17" fill="#fff"><path d="M8.512 0h51.166C65 0 69.058 2.147 71.85 6.442c1.059 2.266 1.413 4.413 1.061 6.441l-1.543 8.903c-.749 4.324-3.74 7.977-8.975 10.96-2.93 1.371-5.709 2.057-8.34 2.057H17.812l-2.248 12.973c-.026.15-.114.224-.266.224H.194c-.152 0-.214-.075-.188-.224L8.246.224C8.304.074 8.392 0 8.513 0zm13.355 11.407l-2.078 11.99h29.529c3.145 0 5.376-1.358 6.693-4.072.23-.626.396-1.237.5-1.834.5-2.893-.39-4.816-2.675-5.77a8.068 8.068 0 00-2.259-.314h-29.71zM79.908 0h15.104c.146.03.209.104.188.224l-4.822 27.825c-.729 4.205.656 6.948 4.153 8.23.805.24 1.57.358 2.296.358h27.76L130.898.225c.056-.15.145-.224.266-.224h15.15c.146.03.208.104.188.224l-8.241 47.552c-.026.15-.115.224-.266.224H86.149c-4.415 0-8.046-1.82-10.892-5.458-1.558-2.356-2.106-4.86-1.646-7.515L79.642.224c.056-.15.145-.224.266-.224zm71.395 0h15.105c.146.03.208.104.188.224l-6.311 36.413h51.075c.151 0 .216.06.195.18l-1.899 10.96c-.026.148-.114.223-.266.223h-66.406c-.151 0-.213-.075-.188-.224L151.038.224c.056-.15.144-.224.265-.224zm86.319 0h51.482c.146.03.209.104.188.224l-1.899 10.96c-.026.149-.114.223-.266.223h-47.128c-2.687.328-4.22 1.58-4.597 3.758-.254 1.461.357 2.565 1.83 3.31.448.21 1.004.313 1.669.313h32.024c4.506 0 8.192 1.76 11.06 5.28 1.698 2.415 2.309 4.994 1.834 7.738l-.574 3.31c-.811 4.683-4.234 8.47-10.27 11.363-2.474 1.014-4.92 1.521-7.339 1.521H214.38c-.151 0-.214-.075-.188-.224l1.899-10.96c.051-.119.137-.178.258-.178h46.902c1.905 0 3.365-.836 4.38-2.506.245-.715.378-1.133.398-1.252.259-1.491-.334-2.61-1.777-3.355-.447-.21-1.019-.313-1.715-.313h-31.57c-5.201 0-9.209-1.999-12.024-5.995-1.286-2.177-1.72-4.473-1.301-6.889l.574-3.31c.759-4.384 3.852-8.008 9.277-10.87 3.035-1.284 5.744-2 8.129-2.148zm84.867 0h15.467c.256.268 2.539 5.502 6.85 15.702 8.716 20.548 13.251 31.284 13.605 32.209l-.016.089h-17.871c-.351-.417-4.283-9.573-11.796-27.467-.928-2.147-1.423-3.22-1.483-3.22-15.413 20.01-23.324 30.24-23.734 30.687h-17.963l.039-.224C309.312 16.97 321.612 1.044 322.489 0zm48.988 0h51.256c4.657 0 8.419 1.76 11.286 5.279 1.699 2.415 2.305 5.025 1.819 7.828l-1.504 8.679c-.781 4.503-3.937 8.23-9.468 11.183l-2.098.85 7.038 14.091-.242.09h-18.416c-.366-.507-2.612-4.906-6.739-13.197h-23.632l-2.249 12.973c-.026.15-.114.224-.265.224h-15.105c-.151 0-.214-.075-.188-.224L371.211.224c.056-.15.145-.224.266-.224zm13.354 11.407l-2.077 11.99h29.528c3.145 0 5.376-1.358 6.693-4.072.23-.626.396-1.237.5-1.834.501-2.893-.39-4.816-2.674-5.77a8.07 8.07 0 00-2.259-.314h-29.711z"/></mask><g filter="url(#filter0_i_10_17)" fill="#05C8FE"><path d="M8.512 0h51.166C65 0 69.058 2.147 71.85 6.442c1.059 2.266 1.413 4.413 1.061 6.441l-1.543 8.903c-.749 4.324-3.74 7.977-8.975 10.96-2.93 1.371-5.709 2.057-8.34 2.057H17.812l-2.248 12.973c-.026.15-.114.224-.266.224H.194c-.152 0-.214-.075-.188-.224L8.246.224C8.304.074 8.392 0 8.513 0zm13.355 11.407l-2.078 11.99h29.529c3.145 0 5.376-1.358 6.693-4.072.23-.626.396-1.237.5-1.834.5-2.893-.39-4.816-2.675-5.77a8.068 8.068 0 00-2.259-.314h-29.71zM79.908 0h15.104c.146.03.209.104.188.224l-4.822 27.825c-.729 4.205.656 6.948 4.153 8.23.805.24 1.57.358 2.296.358h27.76L130.898.225c.056-.15.145-.224.266-.224h15.15c.146.03.208.104.188.224l-8.241 47.552c-.026.15-.115.224-.266.224H86.149c-4.415 0-8.046-1.82-10.892-5.458-1.558-2.356-2.106-4.86-1.646-7.515L79.642.224c.056-.15.145-.224.266-.224zm71.395 0h15.105c.146.03.208.104.188.224l-6.311 36.413h51.075c.151 0 .216.06.195.18l-1.899 10.96c-.026.148-.114.223-.266.223h-66.406c-.151 0-.213-.075-.188-.224L151.038.224c.056-.15.144-.224.265-.224zm86.319 0h51.482c.146.03.209.104.188.224l-1.899 10.96c-.026.149-.114.223-.266.223h-47.128c-2.687.328-4.22 1.58-4.597 3.758-.254 1.461.357 2.565 1.83 3.31.448.21 1.004.313 1.669.313h32.024c4.506 0 8.192 1.76 11.06 5.28 1.698 2.415 2.309 4.994 1.834 7.738l-.574 3.31c-.811 4.683-4.234 8.47-10.27 11.363-2.474 1.014-4.92 1.521-7.339 1.521H214.38c-.151 0-.214-.075-.188-.224l1.899-10.96c.051-.119.137-.178.258-.178h46.902c1.905 0 3.365-.836 4.38-2.506.245-.715.378-1.133.398-1.252.259-1.491-.334-2.61-1.777-3.355-.447-.21-1.019-.313-1.715-.313h-31.57c-5.201 0-9.209-1.999-12.024-5.995-1.286-2.177-1.72-4.473-1.301-6.889l.574-3.31c.759-4.384 3.852-8.008 9.277-10.87 3.035-1.284 5.744-2 8.129-2.148zm84.867 0h15.467c.256.268 2.539 5.502 6.85 15.702 8.716 20.548 13.251 31.284 13.605 32.209l-.016.089h-17.871c-.351-.417-4.283-9.573-11.796-27.467-.928-2.147-1.423-3.22-1.483-3.22-15.413 20.01-23.324 30.24-23.734 30.687h-17.963l.039-.224C309.312 16.97 321.612 1.044 322.489 0zm48.988 0h51.256c4.657 0 8.419 1.76 11.286 5.279 1.699 2.415 2.305 5.025 1.819 7.828l-1.504 8.679c-.781 4.503-3.937 8.23-9.468 11.183l-2.098.85 7.038 14.091-.242.09h-18.416c-.366-.507-2.612-4.906-6.739-13.197h-23.632l-2.249 12.973c-.026.15-.114.224-.265.224h-15.105c-.151 0-.214-.075-.188-.224L371.211.224c.056-.15.145-.224.266-.224zm13.354 11.407l-2.077 11.99h29.528c3.145 0 5.376-1.358 6.693-4.072.23-.626.396-1.237.5-1.834.501-2.893-.39-4.816-2.674-5.77a8.07 8.07 0 00-2.259-.314h-29.711z"/></g><path d="M8.512 0h51.166C65 0 69.058 2.147 71.85 6.442c1.059 2.266 1.413 4.413 1.061 6.441l-1.543 8.903c-.749 4.324-3.74 7.977-8.975 10.96-2.93 1.371-5.709 2.057-8.34 2.057H17.812l-2.248 12.973c-.026.15-.114.224-.266.224H.194c-.152 0-.214-.075-.188-.224L8.246.224C8.304.074 8.392 0 8.513 0zm13.355 11.407l-2.078 11.99h29.529c3.145 0 5.376-1.358 6.693-4.072.23-.626.396-1.237.5-1.834.5-2.893-.39-4.816-2.675-5.77a8.068 8.068 0 00-2.259-.314h-29.71zM79.908 0h15.104c.146.03.209.104.188.224l-4.822 27.825c-.729 4.205.656 6.948 4.153 8.23.805.24 1.57.358 2.296.358h27.76L130.898.225c.056-.15.145-.224.266-.224h15.15c.146.03.208.104.188.224l-8.241 47.552c-.026.15-.115.224-.266.224H86.149c-4.415 0-8.046-1.82-10.892-5.458-1.558-2.356-2.106-4.86-1.646-7.515L79.642.224c.056-.15.145-.224.266-.224zm71.395 0h15.105c.146.03.208.104.188.224l-6.311 36.413h51.075c.151 0 .216.06.195.18l-1.899 10.96c-.026.148-.114.223-.266.223h-66.406c-.151 0-.213-.075-.188-.224L151.038.224c.056-.15.144-.224.265-.224zm86.319 0h51.482c.146.03.209.104.188.224l-1.899 10.96c-.026.149-.114.223-.266.223h-47.128c-2.687.328-4.22 1.58-4.597 3.758-.254 1.461.357 2.565 1.83 3.31.448.21 1.004.313 1.669.313h32.024c4.506 0 8.192 1.76 11.06 5.28 1.698 2.415 2.309 4.994 1.834 7.738l-.574 3.31c-.811 4.683-4.234 8.47-10.27 11.363-2.474 1.014-4.92 1.521-7.339 1.521H214.38c-.151 0-.214-.075-.188-.224l1.899-10.96c.051-.119.137-.178.258-.178h46.902c1.905 0 3.365-.836 4.38-2.506.245-.715.378-1.133.398-1.252.259-1.491-.334-2.61-1.777-3.355-.447-.21-1.019-.313-1.715-.313h-31.57c-5.201 0-9.209-1.999-12.024-5.995-1.286-2.177-1.72-4.473-1.301-6.889l.574-3.31c.759-4.384 3.852-8.008 9.277-10.87 3.035-1.284 5.744-2 8.129-2.148zm84.867 0h15.467c.256.268 2.539 5.502 6.85 15.702 8.716 20.548 13.251 31.284 13.605 32.209l-.016.089h-17.871c-.351-.417-4.283-9.573-11.796-27.467-.928-2.147-1.423-3.22-1.483-3.22-15.413 20.01-23.324 30.24-23.734 30.687h-17.963l.039-.224C309.312 16.97 321.612 1.044 322.489 0zm48.988 0h51.256c4.657 0 8.419 1.76 11.286 5.279 1.699 2.415 2.305 5.025 1.819 7.828l-1.504 8.679c-.781 4.503-3.937 8.23-9.468 11.183l-2.098.85 7.038 14.091-.242.09h-18.416c-.366-.507-2.612-4.906-6.739-13.197h-23.632l-2.249 12.973c-.026.15-.114.224-.265.224h-15.105c-.151 0-.214-.075-.188-.224L371.211.224c.056-.15.145-.224.266-.224zm13.354 11.407l-2.077 11.99h29.528c3.145 0 5.376-1.358 6.693-4.072.23-.626.396-1.237.5-1.834.501-2.893-.39-4.816-2.674-5.77a8.07 8.07 0 00-2.259-.314h-29.711z" stroke="#05C8FE" stroke-width="2" mask="url(#path-1-inside-1_10_17)"/><defs><filter id="filter0_i_10_17" x="0" y="0" width="436" height="48" filterUnits="userSpaceOnUse" color-interpolation-filters="sRGB"><feFlood flood-opacity="0" result="BackgroundImageFix"/><feBlend in="SourceGraphic" in2="BackgroundImageFix" result="shape"/><feColorMatrix in="SourceAlpha" values="0 0 0 0 0 0 0 0 0 0 0 0 0 0 0 0 0 0 127 0" result="hardAlpha"/><feOffset/><feGaussianBlur stdDeviation="7"/><feComposite in2="hardAlpha" operator="arithmetic" k2="-1" k3="1"/><feColorMatrix values="0 0 0 0 0 0 0 0 0 0.16 0 0 0 0 1 0 0 0 1 0"/><feBlend in2="shape" result="effect1_innerShadow_10_17"/></filter></defs></svg>