<svg width="58" height="67" fill="none" xmlns="http://www.w3.org/2000/svg"><g clip-path="url(#clip0_101_387)" fill="#05C8FE"><path opacity=".6" d="M37.14 7.372c-.24 0-.478-.062-.688-.182l-7.288-4.225-7.318 4.225a1.375 1.375 0 01-1.882-.506 1.381 1.381 0 01.507-1.884L28.485.202a1.366 1.366 0 011.376 0l7.977 4.617a1.376 1.376 0 01-.688 2.572M29.164 43.69a1.377 1.377 0 01-1.376-1.425v-9.197a1.378 1.378 0 011.376-1.377 1.373 1.373 0 011.375 1.377v9.197a1.377 1.377 0 01-1.375 1.377M1.747 27.82A1.376 1.376 0 01.37 26.445V17.21a1.378 1.378 0 011.376-1.377 1.375 1.375 0 011.375 1.377v9.235a1.378 1.378 0 01-1.375 1.377zm54.804 0a1.376 1.376 0 01-1.375-1.376V17.21a1.377 1.377 0 012.348-.974c.258.259.403.609.403.974v9.235a1.378 1.378 0 01-1.376 1.377zm.01 22.489a1.374 1.374 0 01-1.376-1.348v-9.274a1.376 1.376 0 112.752 0v9.274a1.377 1.377 0 01-1.376 1.377v-.03zm-54.814 0A1.374 1.374 0 01.37 48.96v-9.274a1.377 1.377 0 112.751 0v9.274a1.378 1.378 0 01-1.375 1.377"/><path opacity=".6" d="M29.163 12.82a1.375 1.375 0 01-1.376-1.376V1.377a1.376 1.376 0 112.751 0v10.067a1.377 1.377 0 01-1.375 1.376zm0 53.348a1.376 1.376 0 01-1.376-1.376v-9.226a1.376 1.376 0 112.751 0v9.236a1.378 1.378 0 01-1.375 1.366z"/><path opacity=".6" d="M29.162 66.165c-.24 0-.478-.062-.687-.182l-8.025-4.598a1.38 1.38 0 011.376-2.39l7.346 4.254 7.241-4.197a1.374 1.374 0 011.833 1.514 1.378 1.378 0 01-.457.819l-7.93 4.598a1.37 1.37 0 01-.687.182m-.008-31.719c-.241 0-.479-.063-.688-.182l-8.005-4.627a1.378 1.378 0 011.375-2.39l7.318 4.225 7.288-4.225a1.374 1.374 0 011.82.535 1.377 1.377 0 01-.444 1.845l-7.977 4.627c-.209.12-.446.183-.687.182m19.401-11.223a1.375 1.375 0 01-1.275-1.906c.117-.28.324-.514.587-.665l7.986-4.618a1.376 1.376 0 011.882.507 1.379 1.379 0 01-.506 1.883l-7.986 4.618c-.21.12-.447.182-.688.181z"/><path opacity=".6" d="M56.55 18.582a1.364 1.364 0 01-.687-.181l-7.996-4.627a1.38 1.38 0 011.376-2.39l7.995 4.627a1.375 1.375 0 01.153 2.288 1.375 1.375 0 01-.84.283zM9.733 23.214a1.38 1.38 0 01-.687-.181l-7.987-4.666a1.378 1.378 0 011.376-2.39l7.996 4.618a1.376 1.376 0 01-.688 2.571"/><path opacity=".6" d="M1.746 18.585a1.376 1.376 0 01-.688-2.572l7.986-4.608a1.376 1.376 0 011.882.506 1.38 1.38 0 01-.506 1.884l-7.986 4.57c-.21.119-.447.182-.688.181m46.809 36.376a1.375 1.375 0 01-1.274-1.906c.116-.28.323-.514.587-.665l8.005-4.618a1.38 1.38 0 011.882.507 1.376 1.376 0 01-.102 1.529c-.11.143-.248.264-.404.354l-8.006 4.618c-.21.12-.447.182-.688.181z"/><path opacity=".6" d="M56.55 50.307a1.364 1.364 0 01-.687-.182l-7.996-4.617a1.379 1.379 0 011.376-2.39l7.995 4.617a1.376 1.376 0 01-.687 2.572zM9.732 54.932c-.24 0-.478-.062-.688-.182L1.05 50.123a1.378 1.378 0 011.375-2.39l7.996 4.627a1.376 1.376 0 01-.688 2.572z"/><path opacity=".6" d="M1.746 50.309A1.374 1.374 0 01.47 48.403c.117-.281.323-.515.587-.666l7.977-4.627a1.377 1.377 0 012.018 1.553 1.38 1.38 0 01-.643.837l-7.976 4.618c-.21.12-.447.182-.688.181"/><path opacity=".2" d="M1.746 17.993a.783.783 0 01-.392-1.463L28.771.688a.783.783 0 01.784 1.358L2.137 17.887a.781.781 0 01-.392.106zm0 31.721a.782.782 0 01-.724-1.084.782.782 0 01.332-.378L56.16 16.53a.783.783 0 01.784 1.358L2.138 49.609a.784.784 0 01-.392.105z"/><path opacity=".2" d="M56.55 17.995a.784.784 0 01-.391-.105L28.77 2.058A.783.783 0 0129.554.7l27.388 15.842a.785.785 0 01-.391 1.462m0 31.71a.772.772 0 01-.391-.105L1.355 17.888a.784.784 0 01.783-1.358l54.815 31.722a.782.782 0 01.364.881.783.783 0 01-.756.581M29.163 65.593a.785.785 0 01-.392-.105L1.355 49.608a.784.784 0 01.783-1.357l27.426 15.88a.782.782 0 01.085 1.3.782.782 0 01-.476.162"/><path opacity=".2" d="M29.173 65.593a.782.782 0 01-.392-1.462L56.16 48.25a.783.783 0 01.783 1.357l-27.378 15.88a.784.784 0 01-.392.105zM1.747 49.713a.783.783 0 01-.765-.755v-31.75a.785.785 0 011.338-.555c.147.148.23.347.23.555v31.75a.784.784 0 01-.784.784"/><path opacity=".2" d="M56.56 49.713a.783.783 0 01-.783-.784V17.208a.785.785 0 01.784-.784.783.783 0 01.783.784v31.75a.785.785 0 01-.783.784M29.162 65.498a.783.783 0 01-.783-.785V1.376a.784.784 0 111.566 0v63.337a.785.785 0 01-.783.785z"/></g><defs><clipPath id="clip0_101_387"><path fill="#fff" d="M0 0h58v67H0z"/></clipPath></defs></svg>