<svg width="20" height="20" viewBox="0 0 20 20" fill="none" xmlns="http://www.w3.org/2000/svg">
<path d="M10 0.25C8.07164 0.25 6.18657 0.821828 4.58319 1.89317C2.97982 2.96452 1.73013 4.48726 0.992179 6.26884C0.254225 8.05042 0.061142 10.0108 0.437348 11.9021C0.813554 13.7934 1.74215 15.5307 3.10571 16.8943C4.46928 18.2579 6.20656 19.1865 8.09787 19.5627C9.98919 19.9389 11.9496 19.7458 13.7312 19.0078C15.5127 18.2699 17.0355 17.0202 18.1068 15.4168C19.1782 13.8134 19.75 11.9284 19.75 10C19.745 7.41566 18.7162 4.93859 16.8888 3.11118C15.0614 1.28378 12.5843 0.254956 10 0.25V0.25ZM13.4125 10.6281L8.9125 13.6281C8.78839 13.7049 8.64593 13.747 8.5 13.75C8.37632 13.7499 8.25435 13.721 8.14375 13.6656C8.02385 13.6009 7.92384 13.5047 7.85447 13.3875C7.7851 13.2702 7.74898 13.1363 7.75 13V7C7.74898 6.86375 7.7851 6.72979 7.85447 6.61252C7.92384 6.49525 8.02385 6.39909 8.14375 6.33438C8.26414 6.27343 8.39831 6.24485 8.53309 6.25142C8.66787 6.258 8.79862 6.29951 8.9125 6.37188L13.4125 9.37188C13.517 9.44003 13.6028 9.53316 13.6622 9.64284C13.7216 9.75251 13.7527 9.87527 13.7527 10C13.7527 10.1247 13.7216 10.2475 13.6622 10.3572C13.6028 10.4668 13.517 10.56 13.4125 10.6281V10.6281Z" fill="white"/>
</svg>
