<svg width="32" height="32" fill="none" xmlns="http://www.w3.org/2000/svg"><path fill="#060709" d="M0 0h32v32H0z"/><g filter="url(#filter0_i_478_1712)"><path d="M5.263 7h19.613c2.04 0 3.596.76 4.667 2.281.406.803.541 1.564.407 2.282l-.592 3.153c-.287 1.531-1.434 2.825-3.44 3.881-1.123.486-2.189.73-3.197.73H8.828l-.862 4.594c-.01.053-.044.079-.102.079h-5.79c-.058 0-.082-.026-.072-.08l3.16-16.84c.02-.054.055-.08.101-.08zm5.12 4.04l-.797 4.246h11.32c1.205 0 2.06-.48 2.565-1.442.088-.221.151-.438.191-.65.192-1.024-.15-1.705-1.025-2.043a3.328 3.328 0 00-.866-.11H10.382z" fill="#05C8FE"/></g><path d="M8.828 18.826h-.415l-.076.408-.8 4.266H2.59l3.001-16h19.285c1.882 0 3.27.686 4.237 2.04.355.714.454 1.352.345 1.93l-.591 3.154c-.248 1.318-1.241 2.505-3.165 3.522-1.067.46-2.059.68-2.981.68H8.828zm1.554-8.286h-.415l-.076.408-.797 4.246-.11.592h11.922c.668 0 1.272-.133 1.79-.424.52-.293.925-.729 1.217-1.285l.013-.024.01-.024c.098-.249.172-.496.218-.742l-.492-.092.492.092c.108-.58.078-1.127-.157-1.596-.239-.476-.654-.804-1.18-1.007l-.025-.01-.025-.006a3.834 3.834 0 00-.996-.128H10.382z" stroke="#05C8FE"/><defs><filter id="filter0_i_478_1712" x="2" y="7" width="28" height="17" filterUnits="userSpaceOnUse" color-interpolation-filters="sRGB"><feFlood flood-opacity="0" result="BackgroundImageFix"/><feBlend in="SourceGraphic" in2="BackgroundImageFix" result="shape"/><feColorMatrix in="SourceAlpha" values="0 0 0 0 0 0 0 0 0 0 0 0 0 0 0 0 0 0 127 0" result="hardAlpha"/><feOffset/><feGaussianBlur stdDeviation="7"/><feComposite in2="hardAlpha" operator="arithmetic" k2="-1" k3="1"/><feColorMatrix values="0 0 0 0 0 0 0 0 0 0.16 0 0 0 0 1 0 0 0 1 0"/><feBlend in2="shape" result="effect1_innerShadow_478_1712"/></filter></defs></svg>